<svg width="56" height="56" viewBox="0 0 56 56" fill="none" xmlns="http://www.w3.org/2000/svg">
<path d="M22.2687 25.3937C22.8125 25 23.075 24.35 23.075 23.4562C23.0938 23.0312 23.0063 22.6125 22.8188 22.2313C22.65 21.925 22.4 21.6687 22.0938 21.4875C21.7762 21.2949 21.4235 21.1675 21.0562 21.1125C20.6562 21.0375 20.25 21 19.85 21.0063H15.4562V25.9875H20.2125C21.0312 25.9937 21.725 25.7937 22.2687 25.3937ZM23.0063 29.8937C22.3938 29.425 21.575 29.1937 20.5562 29.1937H15.4438V35.0687H20.4562C20.925 35.0687 21.3562 35.025 21.775 34.9375C22.1712 34.86 22.5489 34.7073 22.8875 34.4875C23.2063 34.2812 23.4625 34 23.6562 33.6375C23.8438 33.275 23.9375 32.8125 23.9375 32.2562C23.9375 31.15 23.625 30.3687 23.0063 29.8937ZM28 0C12.5375 0 0 12.5375 0 28C0 43.4625 12.5375 56 28 56C43.4625 56 56 43.4625 56 28C56 12.5375 43.4625 0 28 0ZM33.4062 17.9312H42.0563V20.0375H33.4062V17.9312ZM28 35.3C27.5954 36.068 27.0177 36.7313 26.3125 37.2375C25.575 37.75 24.7563 38.125 23.8875 38.3438C22.9786 38.5873 22.041 38.7071 21.1 38.7H10.75V17.3813H20.8125C21.8312 17.3813 22.7563 17.475 23.6 17.65C24.4375 17.825 25.15 18.125 25.75 18.5312C26.3438 18.9375 26.8125 19.4813 27.1437 20.1562C27.4688 20.825 27.6375 21.6625 27.6375 22.6562C27.6375 23.7313 27.3937 24.6187 26.9062 25.3375C26.4125 26.0562 25.7 26.6375 24.7313 27.0938C26.05 27.4688 27.0187 28.1375 27.6562 29.075C28.3062 30.025 28.625 31.1625 28.625 32.5C28.625 33.5875 28.4188 34.5187 28 35.3ZM45.425 32H34.275C34.275 33.2125 34.6938 34.375 35.325 35C35.9625 35.6188 36.875 35.9313 38.0687 35.9313C38.9312 35.9313 39.6625 35.7125 40.2875 35.2812C40.9062 34.85 41.2812 34.3937 41.4188 33.9188H45.1562C44.5563 35.775 43.6437 37.1 42.4062 37.9C41.1813 38.7 39.6813 39.1 37.9375 39.1C36.7188 39.1 35.625 38.9 34.6437 38.5187C33.7 38.15 32.85 37.5875 32.15 36.8625C31.4598 36.118 30.9263 35.2423 30.5812 34.2875C30.2 33.2312 30.0125 32.1188 30.025 31C30.025 29.8438 30.2188 28.7687 30.5938 27.7687C31.3125 25.825 32.8063 24.2687 34.7125 23.4625C35.7313 23.0375 36.825 22.825 37.9313 22.8375C39.2438 22.8375 40.3813 23.0875 41.3688 23.6C42.3194 24.0894 43.1448 24.7908 43.7812 25.65C44.4125 26.5063 44.8563 27.4812 45.1375 28.5812C45.4062 29.6625 45.5 30.8 45.425 32ZM37.8 26.025C37.125 26.025 36.5563 26.1437 36.1188 26.375C35.6813 26.6063 35.3188 26.8938 35.0438 27.225C34.7819 27.5448 34.5883 27.9149 34.475 28.3125C34.375 28.6437 34.3063 28.9813 34.2812 29.325H41.1875C41.0875 28.2438 40.7125 27.4438 40.2125 26.8813C39.6875 26.325 38.8438 26.025 37.8 26.025Z" fill="white"/>
</svg>
