<svg width="58" height="58" viewBox="0 0 58 58" fill="none" xmlns="http://www.w3.org/2000/svg">
<path d="M29 58C25.0729 58 21.3158 57.2354 17.7285 55.7061C14.1413 54.1768 11.0544 52.1188 8.46777 49.5322C5.88118 46.9456 3.82324 43.8587 2.29395 40.2715C0.764648 36.6842 0 32.9271 0 29C0 25.0729 0.764648 21.3158 2.29395 17.7285C3.82324 14.1413 5.88118 11.0544 8.46777 8.46777C11.0544 5.88118 14.1413 3.82324 17.7285 2.29395C21.3158 0.764648 25.0729 0 29 0C32.9271 0 36.6842 0.764648 40.2715 2.29395C43.8587 3.82324 46.9456 5.88118 49.5322 8.46777C52.1188 11.0544 54.1768 14.1413 55.7061 17.7285C57.2354 21.3158 58 25.0729 58 29C58 32.9271 57.2354 36.6842 55.7061 40.2715C54.1768 43.8587 52.1188 46.9456 49.5322 49.5322C46.9456 52.1188 43.8587 54.1768 40.2715 55.7061C36.6842 57.2354 32.9271 58 29 58ZM43.5 18.125C43.5 17.1432 43.1507 16.2936 42.4521 15.5762C41.7536 14.8587 40.8945 14.5 39.875 14.5H18.125C17.1432 14.5 16.2936 14.8587 15.5762 15.5762C14.8587 16.2936 14.5 17.1432 14.5 18.125V21.75H20.957C23.1471 19.3333 25.8281 18.125 29 18.125C32.1719 18.125 34.8529 19.3333 37.043 21.75H43.5V18.125ZM21.75 29C21.75 31.0013 22.458 32.71 23.874 34.126C25.29 35.542 26.9987 36.25 29 36.25C31.0013 36.25 32.71 35.542 34.126 34.126C35.542 32.71 36.25 31.0013 36.25 29C36.25 26.9987 35.542 25.29 34.126 23.874C32.71 22.458 31.0013 21.75 29 21.75C26.9987 21.75 25.29 22.458 23.874 23.874C22.458 25.29 21.75 26.9987 21.75 29ZM43.5 25.375H39.1953C39.6484 26.6211 39.875 27.8294 39.875 29C39.875 32.0208 38.8177 34.5885 36.7031 36.7031C34.5885 38.8177 32.0208 39.875 29 39.875C25.9792 39.875 23.4115 38.8177 21.2969 36.7031C19.1823 34.5885 18.125 32.0208 18.125 29C18.125 27.8294 18.3516 26.6211 18.8047 25.375H14.5V39.875C14.5 40.8945 14.8493 41.7536 15.5479 42.4521C16.2464 43.1507 17.1055 43.5 18.125 43.5H39.875C40.8945 43.5 41.7536 43.1507 42.4521 42.4521C43.1507 41.7536 43.5 40.8945 43.5 39.875V25.375Z" fill="white"/>
</svg>
