<svg width="30" height="30" viewBox="0 0 30 30" fill="none" xmlns="http://www.w3.org/2000/svg">
<path fill-rule="evenodd" clip-rule="evenodd" d="M9.16992 28.5469C11.0254 29.3229 12.9688 29.7109 15 29.7109C17.0312 29.7109 18.9746 29.3229 20.8301 28.5469C22.6855 27.771 24.2822 26.7267 25.6201 25.4143C26.958 24.1018 28.0225 22.5355 28.8135 20.7153C29.6045 18.8951 30 16.9887 30 14.9961C30 13.0034 29.6045 11.097 28.8135 9.27684C28.0225 7.45664 26.958 5.89032 25.6201 4.57786C24.2822 3.26541 22.6855 2.22119 20.8301 1.44522C18.9746 0.669239 17.0312 0.28125 15 0.28125C12.9688 0.28125 11.0254 0.669239 9.16992 1.44522C7.31445 2.22119 5.71777 3.26541 4.37988 4.57786C3.04199 5.89032 1.97754 7.45664 1.18652 9.27684C0.395508 11.097 0 13.0034 0 14.9961C0 16.9887 0.395508 18.8951 1.18652 20.7153C1.97754 22.5355 3.04199 24.1018 4.37988 25.4143C5.71777 26.7267 7.31445 27.771 9.16992 28.5469ZM10.7812 8.63932C11.116 7.65032 10.5996 6.53534 9.62171 6.13557C8.64669 5.73704 7.53702 6.11343 7.01606 7.01935C6.80247 7.39073 6.77229 7.51578 6.77386 8.02224C6.7759 8.67813 6.92928 9.04642 7.37437 9.46432C8.46943 10.4926 10.3044 10.0482 10.7812 8.63932ZM23.9669 14.2468C23.5341 12.7268 22.7461 11.9104 21.3815 11.5678C20.5774 11.366 19.2253 11.3653 18.5843 11.5665C17.84 11.8 16.9846 12.4438 16.5314 13.1117C16.4071 13.2947 16.4019 13.269 16.4019 12.4753V11.6481H12.943V23.0656H16.4662L16.5001 19.7676C16.5287 16.981 16.5545 16.3979 16.6664 16.0068C16.9601 14.9804 17.6011 14.5011 18.6761 14.5041C19.6617 14.5069 20.1338 14.823 20.4601 15.6982C20.5899 16.0463 20.6064 16.425 20.6304 19.5748L20.657 23.0656H24.1932L24.1659 18.9576C24.1396 15.014 24.1317 14.8255 23.9669 14.2468ZM10.5847 11.6481V23.0656H7.04719V11.6481H10.5847Z" fill="white"/>
</svg>
